# xmcd
#
# Track frame offsets: 
#        150
#        23828
#        45563
#        60780
#        76253
#        97475
#        117160
#        137963
#        157145
#        170715
#
# Disc length: 2595 seconds
#
# Revision: 2
# Processed by: cddbd v1.5.1PL2 Copyright (c) Steve Scherf et al.
# Submitted via: ExactAudioCopy v0.95b3
#
DISCID=840a210a
DTITLE=Notodden Blues Band - Live
DYEAR=1989
DGENRE=Blues
TTITLE0=Svampen - Ain't it just like a woman
TTITLE1=I'd rather go blind
TTITLE2=Crazy corner
TTITLE3=Blues never die
TTITLE4=Smoking gun
TTITLE5=Into the night
TTITLE6=Georgia on my mind
TTITLE7=Kristiansand
TTITLE8=6345 - 789
TTITLE9=Still be around
EXTD=
EXTT0=
EXTT1=
EXTT2=
EXTT3=
EXTT4=
EXTT5=
EXTT6=
EXTT7=
EXTT8=
EXTT9=
PLAYORDER=
